<svg width="32" height="33" viewBox="0 0 32 33" fill="none" xmlns="http://www.w3.org/2000/svg">
<path d="M31.9397 16.7936C31.9279 25.5852 24.7877 32.7008 15.9872 32.69C7.17893 32.6792 0.0485259 25.5518 0.0593385 16.769C0.071134 7.97741 7.21136 0.861758 16.0118 0.872571C24.8201 0.883383 31.9505 8.01083 31.9397 16.7936ZM9.01706 15.8313H15.0465C15.0515 15.7261 15.0603 15.6337 15.0603 15.5423C15.0603 14.1691 15.0544 12.7949 15.0672 11.4217C15.0692 11.1671 14.9856 11.116 14.7477 11.1022C13.3205 11.0207 11.8952 10.9204 10.4689 10.8241C10.2094 10.8064 9.95088 10.7789 9.68843 10.7553C9.27263 12.4361 9.07702 14.1121 9.01804 15.8313H9.01706ZM7.73135 10.4623C7.75003 10.4722 7.72643 10.4535 7.69989 10.4476C6.50068 10.1635 5.30049 9.88534 4.10422 9.59242C3.91844 9.5472 3.87519 9.65336 3.80835 9.76837C3.01707 11.1327 2.47644 12.5924 2.18352 14.1406C2.07932 14.691 2.02428 15.2513 1.94367 15.8303H7.05212C7.27919 14.0344 7.5033 12.2572 7.73037 10.4614L7.73135 10.4623ZM22.3303 10.829C20.5197 10.942 18.7474 11.0531 16.9594 11.1652V15.8323H22.983C22.9279 14.1317 22.7313 12.4676 22.3303 10.829ZM28.1357 23.8827C29.2444 22.0033 29.8765 19.9538 30.0298 17.7304H24.9391C24.713 19.4918 24.4899 21.2317 24.2667 22.9715C25.5151 23.2654 26.8126 23.5711 28.1347 23.8827H28.1357ZM30.0043 15.8303C30.0131 15.7782 30.02 15.7595 30.019 15.7408C29.8755 13.6196 29.2621 11.6419 28.1986 9.80375C28.1592 9.73691 27.9931 9.69366 27.9017 9.71332C26.7526 9.96103 25.6085 10.2313 24.4584 10.4732C24.2235 10.5223 24.1999 10.6068 24.2471 10.8133C24.5931 12.3408 24.7769 13.8909 24.8437 15.4548C24.8486 15.5747 24.8624 15.6946 24.8732 15.8303H30.0052H30.0043ZM16.9633 17.7264C16.9525 17.7824 16.9427 17.81 16.9427 17.8375C16.9407 19.2687 16.9427 20.6989 16.9368 22.1301C16.9368 22.306 17.0076 22.3483 17.1707 22.3591C18.7956 22.4643 20.4194 22.5734 22.0433 22.6943C22.2575 22.71 22.346 22.6619 22.3794 22.4456C22.5446 21.3683 22.7343 20.2939 22.8866 19.2146C22.9555 18.7281 22.9545 18.2307 22.9859 17.7274H16.9653L16.9633 17.7264ZM9.02001 17.7323C9.0898 19.4191 9.27263 21.0577 9.68449 22.6678C9.74544 22.6707 9.78279 22.6756 9.81916 22.6737C11.4813 22.5665 13.1435 22.4535 14.8067 22.3562C15.0279 22.3434 15.0672 22.2589 15.0662 22.0642C15.0603 20.7176 15.0633 19.3709 15.0633 18.0252V17.7323H9.02001ZM1.98496 17.7294C1.98496 17.8208 1.98103 17.8778 1.98496 17.9338C2.14911 19.9715 2.73496 21.8804 3.73266 23.6655C3.8172 23.8159 3.90566 23.8188 4.05311 23.7844C5.21595 23.5151 6.37978 23.2457 7.54754 22.9971C7.78345 22.9469 7.80114 22.8555 7.75494 22.652C7.4109 21.1432 7.232 19.6127 7.15828 18.0685C7.15337 17.9584 7.13961 17.8483 7.12879 17.7304H1.98398L1.98496 17.7294ZM16.9574 2.89157V9.27885C18.5754 9.18351 20.1688 9.08914 21.8496 8.98986C21.4859 8.17007 21.195 7.4358 20.8401 6.73397C20.269 5.60061 19.5544 4.56654 18.5587 3.75461C18.0898 3.37224 17.5777 3.06752 16.9574 2.89256V2.89157ZM10.1593 24.4803C10.5171 25.2874 10.809 26.0216 11.1629 26.7244C11.7251 27.8421 12.4319 28.8614 13.405 29.6694C13.8847 30.0675 14.4086 30.3889 15.0377 30.5521V24.1845C13.4256 24.2818 11.8411 24.3781 10.1593 24.4803ZM10.2094 8.95448C11.8509 9.0626 13.4384 9.16581 15.0377 9.27099V2.90239C14.9482 2.92499 14.8844 2.93679 14.8244 2.95743C14.0803 3.21988 13.461 3.67401 12.9145 4.23037C11.8598 5.30278 11.1589 6.59832 10.5829 7.96955C10.4571 8.27034 10.3509 8.57899 10.2094 8.95349V8.95448ZM16.9387 30.5609C17.0636 30.5246 17.1442 30.5049 17.2218 30.4774C17.9453 30.2159 18.5459 29.7697 19.0806 29.228C20.1167 28.1782 20.8087 26.9102 21.3837 25.5705C21.5233 25.2461 21.6363 24.9099 21.771 24.556C21.6353 24.5354 21.5351 24.5118 21.4338 24.5059C20.0439 24.4135 18.653 24.33 17.2631 24.2277C16.9938 24.2081 16.9328 24.2946 16.9338 24.5501C16.9437 26.4423 16.9387 28.3355 16.9387 30.2287V30.5619V30.5609ZM10.9191 29.807C10.7903 29.635 10.6596 29.4649 10.5348 29.29C9.59898 27.9866 8.92466 26.5524 8.4204 25.0357C8.34373 24.8047 8.23954 24.7516 8.01149 24.8018C7.39616 24.9355 6.77394 25.0426 6.15763 25.1733C5.76739 25.2559 5.38306 25.3601 4.94859 25.4663C6.57342 27.4754 8.5246 28.9371 10.9201 29.807H10.9191ZM26.9728 25.5606C26.8775 25.5233 26.8205 25.4928 26.7605 25.479C25.8513 25.2756 24.9391 25.0849 24.0347 24.8657C23.7379 24.7929 23.6288 24.8814 23.5354 25.1586C22.984 26.8031 22.2251 28.3424 21.1468 29.7117C21.1212 29.7441 21.1065 29.7864 21.0534 29.8856C23.443 28.9499 25.3775 27.5167 26.9728 25.5606ZM21.2058 3.8018C21.2549 3.87552 21.3051 3.95022 21.3542 4.02394C21.5744 4.35127 21.8044 4.67368 22.0128 5.00789C22.6881 6.09111 23.1982 7.25101 23.5993 8.46005C23.6504 8.61339 23.6927 8.72839 23.9079 8.6822C24.8535 8.47479 25.8031 8.2841 26.7507 8.08456C26.8185 8.07079 26.8804 8.03443 26.9728 7.99806C25.404 6.08128 23.5148 4.66385 21.2058 3.8018ZM10.7952 3.80278C8.51379 4.65697 6.64518 6.04491 5.0862 7.92532C5.20514 7.96267 5.28967 7.99707 5.37814 8.01673C6.26772 8.21431 7.15927 8.40304 8.04688 8.61044C8.271 8.66254 8.36044 8.60258 8.43023 8.38731C8.84111 7.12125 9.40337 5.92303 10.114 4.79655C10.3283 4.45645 10.5682 4.13404 10.7962 3.80278H10.7952Z" fill="white"/>
</svg>
